<svg xmlns="http://www.w3.org/2000/svg" viewBox="0 0 256 256">
<defs>
 <linearGradient id="st" x1="0" y1="0" x2="1" y2="1"><stop offset="0" stop-color="#6a707e"/><stop offset=".4" stop-color="#2e323b"/><stop offset="1" stop-color="#121418"/></linearGradient>
 <linearGradient id="st2" x1="0" y1="0" x2="0" y2="1"><stop offset="0" stop-color="#4a4f5a"/><stop offset="1" stop-color="#16181d"/></linearGradient>
 <linearGradient id="gold" x1="0" y1="0" x2="0" y2="1"><stop offset="0" stop-color="#ffe29a"/><stop offset=".5" stop-color="#c8902a"/><stop offset="1" stop-color="#6a420a"/></linearGradient>
 <pattern id="scale" width="12" height="10" patternUnits="userSpaceOnUse"><path d="M0 0 Q6 10 12 0" fill="#1c1f26" stroke="#5a2a22" stroke-width="1.4"/><path d="M-6 5 Q0 15 6 5 M6 5 Q12 15 18 5" fill="#1c1f26" stroke="#5a2a22" stroke-width="1.4"/></pattern>
 <filter id="glow" x="-50%" y="-50%" width="200%" height="200%"><feGaussianBlur stdDeviation="1.8" result="b"/><feMerge><feMergeNode in="b"/><feMergeNode in="SourceGraphic"/></feMerge></filter>
 <filter id="sh"><feDropShadow dx="0" dy="4" stdDeviation="4" flood-color="#000" flood-opacity=".6"/></filter>
</defs>
<g filter="url(#sh)">
 <!-- dragon-scale skirt -->
 <path d="M76 176 L180 176 L190 232 L150 226 L128 238 L106 226 L66 232 Z" fill="url(#scale)" stroke="#0a0b0d" stroke-width="3"/>
 <!-- torso -->
 <path d="M70 70 Q128 52 186 70 L178 150 Q128 186 78 150 Z" fill="url(#st)" stroke="#08090b" stroke-width="3"/>
 <path d="M128 60 L128 176" stroke="#0a0b0d" stroke-width="3"/>
 <path d="M84 132 Q128 158 172 132 L176 148 Q128 176 80 148 Z" fill="url(#st2)" stroke="#08090b" stroke-width="2"/>
 <path d="M80 150 Q128 180 176 150 L178 176 L78 176 Z" fill="url(#st2)" stroke="#08090b" stroke-width="2"/>
 <path d="M72 74 Q128 58 184 74" fill="none" stroke="url(#gold)" stroke-width="5"/>
 <path d="M80 150 Q128 180 176 150" fill="none" stroke="url(#gold)" stroke-width="3"/>
 <!-- gorget -->
 <path d="M100 48 Q128 40 156 48 L152 66 Q128 60 104 66 Z" fill="url(#st2)" stroke="#08090b" stroke-width="2.5"/>
 <!-- pauldrons -->
 <g id="pd"><path d="M70 66 Q30 60 20 104 Q42 96 58 110 Q52 88 78 84 Z" fill="url(#st)" stroke="#08090b" stroke-width="3"/>
  <path d="M26 98 Q40 92 56 104" fill="none" stroke="url(#gold)" stroke-width="3.5"/>
  <path d="M40 66 L30 50 L48 62 M56 64 L52 46 L64 62" fill="#2a2e36" stroke="#08090b" stroke-width="2"/>
  <g filter="url(#glow)" fill="none" stroke="#c8e0ff" stroke-width="2"><path d="M36 80 l6 -6 l4 8 M50 76 v10 M58 78 l6 4 l-6 4"/></g></g>
 <use href="#pd" transform="translate(256 0) scale(-1 1)"/>
 <!-- order emblem: winged dragon crest -->
 <path d="M128 90 L146 100 L146 120 Q128 136 110 120 L110 100 Z" fill="url(#gold)" stroke="#5a3a08" stroke-width="2.5"/>
 <path d="M128 98 L138 104 L138 118 Q128 126 118 118 L118 104 Z" fill="#7a1010"/>
 <path d="M122 106 Q128 100 134 106 L128 118 Z" fill="#ffcf5a" filter="url(#glow)"/>
 <path d="M110 104 Q92 96 88 108 Q100 106 110 114 M146 104 Q164 96 168 108 Q156 106 146 114" fill="url(#gold)" stroke="#5a3a08" stroke-width="1.5"/>
 <!-- rivets -->
 <g fill="url(#gold)"><circle cx="88" cy="84" r="3"/><circle cx="168" cy="84" r="3"/><circle cx="96" cy="142" r="3"/><circle cx="160" cy="142" r="3"/></g>
</g>
</svg>
